solid obj_to_stl
facet normal -0.0 -1.0 0.0
  outer loop
    vertex 1.0 -1.0 1.0
    vertex -1.0 -1.0 1.0
    vertex -1.0 -1.0 -1.0
  endloop
endfacet
facet normal 0.0 1.0 0.0
  outer loop
    vertex -1.0 1.0 -1.0
    vertex -1.0 1.0 1.0
    vertex 0.999999 1.0 1.000001
  endloop
endfacet
facet normal -0.0 1.0 0.0
  outer loop
    vertex -1.0 1.0 1.0
    vertex 0.999999 1.0 1.000001
    vertex 1.0 1.0 -0.999999
  endloop
endfacet
facet normal -0.0 1.0 0.0
  outer loop
    vertex -1.0 1.0 1.0
    vertex 0.999999 1.0 1.000001
    vertex 1.0 1.0 -0.999999
  endloop
endfacet
facet normal -0.0 1.0 0.0
  outer loop
    vertex -1.0 1.0 1.0
    vertex 0.999999 1.0 1.000001
    vertex 1.0 1.0 -0.999999
  endloop
endfacet
facet normal -1.0 2.2737368E-13 -5.066395E-7
  outer loop
    vertex 0.999999 1.0 1.000001
    vertex 1.0 1.0 -0.999999
    vertex 1.0 -1.0 -1.0
  endloop
endfacet
facet normal -1.0 2.2737368E-13 -5.066395E-7
  outer loop
    vertex 0.999999 1.0 1.000001
    vertex 1.0 1.0 -0.999999
    vertex 1.0 -1.0 -1.0
  endloop
endfacet
facet normal -1.0 2.2737368E-13 -5.066395E-7
  outer loop
    vertex 0.999999 1.0 1.000001
    vertex 1.0 1.0 -0.999999
    vertex 1.0 -1.0 -1.0
  endloop
endfacet
facet normal -1.0 2.2737368E-13 -5.066395E-7
  outer loop
    vertex 0.999999 1.0 1.000001
    vertex 1.0 1.0 -0.999999
    vertex 1.0 -1.0 -1.0
  endloop
endfacet
facet normal -1.0 2.2737368E-13 -5.066395E-7
  outer loop
    vertex 0.999999 1.0 1.000001
    vertex 1.0 1.0 -0.999999
    vertex 1.0 -1.0 -1.0
  endloop
endfacet
facet normal -1.0 2.2737368E-13 -5.066395E-7
  outer loop
    vertex 0.999999 1.0 1.000001
    vertex 1.0 1.0 -0.999999
    vertex 1.0 -1.0 -1.0
  endloop
endfacet
facet normal -1.0 2.2737368E-13 -5.066395E-7
  outer loop
    vertex 0.999999 1.0 1.000001
    vertex 1.0 1.0 -0.999999
    vertex 1.0 -1.0 -1.0
  endloop
endfacet
endsolid obj_to_stl
